HIERARCHY
ROOT Hips
{
    OFFSET 0.000000 0.000000 0.000000
    CHANNELS 6 Xposition Yposition Zposition Zrotation Xrotation Yrotation
    JOINT Spine
    {
        OFFSET -0.000000 14.517291 0.000000
        CHANNELS 3 Zrotation Xrotation Yrotation
        JOINT Spine1
        {
            OFFSET -0.000000 37.558300 0.000000
            CHANNELS 3 Zrotation Xrotation Yrotation
            JOINT Neck
            {
                OFFSET -0.000000 37.404057 3.400369
                CHANNELS 3 Zrotation Xrotation Yrotation
                JOINT Head
                {
                    OFFSET -0.000000 24.785618 -3.540803
                    CHANNELS 3 Zrotation Xrotation Yrotation
                    End Site
                    {
                        OFFSET -0.000000 35.408028 0.000000
                    }
                }
            }
            JOINT LeftShoulder
            {
                OFFSET 6.992933 33.973492 -0.192664
                CHANNELS 3 Zrotation Xrotation Yrotation
                JOINT LeftArm
                {
                    OFFSET 21.527611 0.000000 0.000000
                    CHANNELS 3 Zrotation Xrotation Yrotation
                    JOINT LeftForeArm
                    {
                        OFFSET 56.353916 0.000000 0.000000
                        CHANNELS 3 Zrotation Xrotation Yrotation
                        JOINT LeftHand
                        {
                            OFFSET 47.774071 0.000000 0.000000
                            CHANNELS 3 Zrotation Xrotation Yrotation
                            End Site
                            {
                                OFFSET 26.556021 0.000000 0.000000
                            }
                        }
                    }
                }
            }
            JOINT RightShoulder
            {
                OFFSET -7.065357 33.973492 -0.192664
                CHANNELS 3 Zrotation Xrotation Yrotation
                JOINT RightArm
                {
                    OFFSET -21.527611 0.000000 0.000000
                    CHANNELS 3 Zrotation Xrotation Yrotation
                    JOINT RightForeArm
                    {
                        OFFSET -56.353916 0.000000 0.000000
                        CHANNELS 3 Zrotation Xrotation Yrotation
                        JOINT RightHand
                        {
                            OFFSET -47.774071 0.000000 0.000000
                            CHANNELS 3 Zrotation Xrotation Yrotation
                            End Site
                            {
                                OFFSET -26.556021 0.000000 0.000000
                            }
                        }
                    }
                }
            }
        }
    }
    JOINT LeftUpLeg
    {
        OFFSET 17.704014 0.000000 0.000000
        CHANNELS 3 Zrotation Xrotation Yrotation
        JOINT LeftLeg
        {
            OFFSET -0.000000 -81.181816 0.000000
            CHANNELS 3 Zrotation Xrotation Yrotation
            JOINT LeftFoot
            {
                OFFSET -0.000000 -62.821102 0.000000
                CHANNELS 3 Zrotation Xrotation Yrotation
                JOINT LeftToeBase
                {
                    OFFSET -0.000000 -11.507608 26.556021
                    CHANNELS 3 Zrotation Xrotation Yrotation
                    End Site
                    {
                        OFFSET -0.000000 0.000000 7.081605
                    }
                }
            }
        }
    }
    JOINT RightUpLeg
    {
        OFFSET -17.704014 0.000000 0.000000
        CHANNELS 3 Zrotation Xrotation Yrotation
        JOINT RightLeg
        {
            OFFSET -0.000000 -81.181816 0.000000
            CHANNELS 3 Zrotation Xrotation Yrotation
            JOINT RightFoot
            {
                OFFSET -0.000000 -62.821102 0.000000
                CHANNELS 3 Zrotation Xrotation Yrotation
                JOINT RightToeBase
                {
                    OFFSET -0.000000 -11.507608 26.556021
                    CHANNELS 3 Zrotation Xrotation Yrotation
                    End Site
                    {
                        OFFSET -0.000000 0.000000 7.081605
                    }
                }
            }
        }
    }
}
MOTION
Frames:    8
Frame Time:    0.008333
23.647409    116.698494    -77.141830    -4.514129    4.177485    30.059238    -1.963371    7.607899    -4.393047    -10.499523    -4.632741    -1.931671    15.587545    2.999146    -0.559046    6.276745    -9.361610    -1.097578    15.004233    -6.909787    -18.401384    -26.628408    -31.338387    -44.551910    -9.334105    -44.895199    -94.090508    -36.010376    -41.957294    -41.334145    -12.177878    -1.765882    -8.781624    17.934233    18.018436    11.118054    14.048515    15.728486    -1.524065    7.109355    16.767387    14.321566    32.672005    -36.280437    3.482985    -137.329666    64.815910    92.186523    6.791817    -43.199585    37.408115    0.000000    0.000000    0.000000    -38.371464    -53.440849    -31.935169    91.083206    68.906265    -75.219353    -17.676914    -29.536104    -18.089430    0.000000    0.000000    0.000000    
23.563808    116.602394    -77.080956    -4.529312    4.190047    30.092403    -1.981114    7.627365    -4.434194    -10.480155    -4.653411    -1.946999    15.634638    3.006742    -0.563867    6.211343    -9.387240    -1.120620    15.007269    -6.885231    -18.414886    -26.710251    -31.448277    -44.595543    -9.382673    -44.787125    -94.063248    -35.929802    -41.912926    -41.306076    -12.133052    -1.771746    -8.791959    17.939163    17.980791    11.063499    14.101567    15.752832    -1.537382    7.144181    16.795753    14.283471    32.741425    -36.336048    3.504297    -137.489639    64.764206    92.362114    6.792415    -43.226219    37.407520    0.000000    0.000000    0.000000    -38.393372    -53.502060    -31.920366    91.414864    68.842896    -75.525452    -17.755182    -29.591475    -18.193029    0.000000    0.000000    0.000000    
23.479443    116.503380    -77.019875    -4.551802    4.207116    30.127789    -1.982428    7.620195    -4.475453    -10.477218    -4.640155    -1.959386    15.676437    2.984227    -0.565363    6.151665    -9.397248    -1.143372    15.019208    -6.874728    -18.419449    -26.703014    -31.445797    -44.592937    -9.357934    -44.832573    -94.015999    -35.924007    -41.933487    -41.315445    -12.094954    -1.789794    -8.793921    17.956980    18.007988    10.987938    14.110287    15.800512    -1.538245    7.250940    16.854242    14.251127    32.823490    -36.401459    3.513362    -137.622421    64.687439    92.482071    6.838737    -43.226933    37.451466    0.000000    0.000000    0.000000    -38.421497    -53.575176    -31.962313    91.781975    68.832802    -75.869408    -17.806572    -29.637363    -18.281618    0.000000    0.000000    0.000000    
23.392321    116.402580    -76.958931    -4.563729    4.222476    30.161352    -1.996781    7.610503    -4.511368    -10.463014    -4.607700    -1.968036    15.709681    2.977287    -0.554149    6.090208    -9.451060    -1.147724    15.045885    -6.832713    -18.392122    -26.773806    -31.512907    -44.668163    -9.409260    -44.803444    -93.999893    -35.818287    -42.006104    -41.205769    -12.084776    -1.778499    -8.835857    17.994795    18.064020    10.978293    14.115891    15.798508    -1.556777    7.213226    16.852596    14.293543    32.892277    -36.461658    3.524995    -137.790588    64.635048    92.617180    6.872595    -43.240665    37.488663    0.000000    0.000000    0.000000    -38.453697    -53.640625    -32.016781    92.139725    68.835152    -76.238853    -17.840090    -29.708286    -18.317646    0.000000    0.000000    0.000000    
23.314529    116.308296    -76.904846    -4.567424    4.233549    30.194380    -2.017287    7.619017    -4.543844    -10.432048    -4.597545    -1.977200    15.745812    2.958086    -0.536898    6.008254    -9.467371    -1.154460    15.044501    -6.804553    -18.423546    -26.756409    -31.527224    -44.626686    -9.391320    -44.828941    -93.940903    -35.848103    -41.981068    -41.277786    -12.078507    -1.777093    -8.841011    18.005144    18.073936    10.922578    14.162643    15.836317    -1.567884    7.267284    16.898518    14.291782    32.939610    -36.516857    3.506055    -137.915451    64.570709    92.722557    6.909739    -43.255531    37.535023    0.000000    0.000000    0.000000    -38.500122    -53.694111    -32.045902    92.484276    68.806892    -76.579666    -17.823467    -29.769682    -18.361185    0.000000    0.000000    0.000000    
23.237738    116.213074    -76.842270    -4.577922    4.226688    30.232943    -2.015590    7.628755    -4.561923    -10.419617    -4.590406    -1.982086    15.761006    2.987777    -0.553859    5.984883    -9.518502    -1.172439    15.048228    -6.777250    -18.474388    -26.755636    -31.517742    -44.617325    -9.377279    -44.878948    -93.873993    -35.857639    -42.013302    -41.267300    -12.074394    -1.792241    -8.849697    18.041573    18.068264    10.853272    14.204425    15.845629    -1.611396    7.302531    16.916534    14.271490    33.006886    -36.564072    3.461207    -138.023499    64.489357    92.777740    6.951852    -43.260143    37.590866    0.000000    0.000000    0.000000    -38.528381    -53.721405    -32.074921    92.829079    68.763756    -76.890366    -17.888821    -29.821089    -18.435177    0.000000    0.000000    0.000000    
23.157463    116.118835    -76.774200    -4.589405    4.216252    30.253952    -2.012545    7.630211    -4.563833    -10.404411    -4.565023    -1.979733    15.749525    2.970253    -0.576259    5.977696    -9.521482    -1.198293    15.043783    -6.755684    -18.479452    -26.755398    -31.433229    -44.660698    -9.321979    -44.996460    -93.772751    -35.908939    -42.050228    -41.311684    -12.077035    -1.807750    -8.877647    18.073875    18.105927    10.799390    14.211373    15.847079    -1.638469    7.362886    16.925821    14.227652    33.102417    -36.587193    3.421499    -138.086853    64.397499    92.758705    6.999954    -43.260868    37.640507    0.000000    0.000000    0.000000    -38.522072    -53.758942    -32.072067    93.154999    68.735390    -77.223885    -17.887653    -29.914352    -18.441540    0.000000    0.000000    0.000000    
23.087420    116.021179    -76.705551    -4.591195    4.207626    30.278721    -2.012994    7.624539    -4.566947    -10.398188    -4.523862    -1.976774    15.777235    2.930142    -0.578886    5.930513    -9.506624    -1.221480    15.058069    -6.752119    -18.483175    -26.767590    -31.351067    -44.694138    -9.280046    -45.088936    -93.696259    -35.873619    -42.126091    -41.271324    -12.060502    -1.815789    -8.908312    18.096128    18.158096    10.746042    14.183271    15.839175    -1.646332    7.356875    16.917265    14.219348    33.180378    -36.609131    3.384214    -138.185791    64.317429    92.789978    7.003462    -43.284927    37.647820    0.000000    0.000000    0.000000    -38.551064    -53.780861    -32.062904    93.506355    68.659279    -77.540337    -17.926235    -29.979570    -18.499800    0.000000    0.000000    0.000000    
